<?xml version="1.0" encoding="UTF-8"?>
<svg xmlns="http://www.w3.org/2000/svg" xmlns:xlink="http://www.w3.org/1999/xlink" viewBox="0 0 30 30" width="30px" height="30px">
<g id="surface5214458">
<path style=" stroke:none;fill-rule:nonzero;fill:rgb(18.039216%,80.000001%,44.313726%);fill-opacity:1;" d="M 14.148438 19.265625 C 13.960938 19.453125 13.703125 19.558594 13.441406 19.558594 C 13.175781 19.558594 12.921875 19.453125 12.734375 19.265625 L 9.28125 15.8125 C 8.890625 15.421875 8.890625 14.789062 9.28125 14.398438 C 9.671875 14.007812 10.304688 14.007812 10.695312 14.398438 L 13.441406 17.144531 L 25.675781 4.910156 C 25.316406 4.363281 24.703125 4 24 4 L 6 4 C 4.894531 4 4 4.894531 4 6 L 4 24 C 4 25.105469 4.894531 26 6 26 L 24 26 C 25.105469 26 26 25.105469 26 24 L 26 7.414062 Z M 14.148438 19.265625 "/>
</g>
</svg>
